<svg xmlns="http://www.w3.org/2000/svg" xmlns:xlink="http://www.w3.org/1999/xlink" width="567" zoomAndPan="magnify" viewBox="0 0 425.25 283.500005" height="378" preserveAspectRatio="xMidYMid meet" version="1.0"><defs><filter x="0%" y="0%" width="100%" height="100%" id="dbae56bac8"><feColorMatrix values="0 0 0 0 1 0 0 0 0 1 0 0 0 0 1 0 0 0 1 0" color-interpolation-filters="sRGB"/></filter><g/><clipPath id="5131f9b0db"><path d="M 0 0 L 424.5 0 L 424.5 283 L 0 283 Z M 0 0 " clip-rule="nonzero"/></clipPath><clipPath id="071c910d0a"><path d="M 26.835938 15.554688 L 397.613281 15.554688 L 397.613281 267.414062 L 26.835938 267.414062 Z M 26.835938 15.554688 " clip-rule="nonzero"/></clipPath><mask id="e3320f5838"><g filter="url(#dbae56bac8)"><rect x="-42.525" width="510.3" fill="#000000" y="-28.350001" height="340.200006" fill-opacity="0.4"/></g></mask><clipPath id="3b09dfe615"><path d="M 0.476562 0.734375 L 286.53125 0.734375 L 286.53125 1.695312 L 0.476562 1.695312 Z M 0.476562 0.734375 " clip-rule="nonzero"/></clipPath><clipPath id="bf6dc4e39f"><rect x="0" width="287" y="0" height="2"/></clipPath><mask id="10d00b6676"><g filter="url(#dbae56bac8)"><rect x="-42.525" width="510.3" fill="#000000" y="-28.350001" height="340.200006" fill-opacity="0.4"/></g></mask><clipPath id="ab162bf001"><path d="M 0.476562 0.160156 L 286.53125 0.160156 L 286.53125 1 L 0.476562 1 Z M 0.476562 0.160156 " clip-rule="nonzero"/></clipPath><clipPath id="599ab8926c"><rect x="0" width="287" y="0" height="2"/></clipPath><mask id="f2deee37f8"><g filter="url(#dbae56bac8)"><rect x="-42.525" width="510.3" fill="#000000" y="-28.350001" height="340.200006" fill-opacity="0.4"/></g></mask><clipPath id="51d220e189"><path d="M 0.476562 0.628906 L 286.53125 0.628906 L 286.53125 1.589844 L 0.476562 1.589844 Z M 0.476562 0.628906 " clip-rule="nonzero"/></clipPath><clipPath id="034319d0a0"><rect x="0" width="287" y="0" height="2"/></clipPath><clipPath id="895d0f7354"><path d="M 336 228 L 367 228 L 367 261 L 336 261 Z M 336 228 " clip-rule="nonzero"/></clipPath><clipPath id="15610cf76b"><path d="M 290.378906 175.371094 L 388.738281 198.621094 L 373.414062 263.46875 L 275.050781 240.21875 Z M 290.378906 175.371094 " clip-rule="nonzero"/></clipPath><clipPath id="e646d413c1"><path d="M 290.378906 175.371094 L 388.738281 198.621094 L 373.414062 263.46875 L 275.050781 240.21875 Z M 290.378906 175.371094 " clip-rule="nonzero"/></clipPath><clipPath id="a07389f103"><path d="M 290.378906 175.371094 L 388.738281 198.621094 L 373.414062 263.46875 L 275.050781 240.21875 Z M 290.378906 175.371094 " clip-rule="nonzero"/></clipPath><clipPath id="f79273af1f"><path d="M 336.066406 228.203125 L 371.261719 236.523438 L 365.34375 261.558594 L 330.148438 253.238281 Z M 336.066406 228.203125 " clip-rule="nonzero"/></clipPath><clipPath id="00c3ae34d7"><path d="M 298 177 L 339 177 L 339 223 L 298 223 Z M 298 177 " clip-rule="nonzero"/></clipPath><clipPath id="19922b4134"><path d="M 290.378906 175.371094 L 388.738281 198.621094 L 373.414062 263.46875 L 275.050781 240.21875 Z M 290.378906 175.371094 " clip-rule="nonzero"/></clipPath><clipPath id="efdc816bea"><path d="M 290.378906 175.371094 L 388.738281 198.621094 L 373.414062 263.46875 L 275.050781 240.21875 Z M 290.378906 175.371094 " clip-rule="nonzero"/></clipPath><clipPath id="bf775369c4"><path d="M 290.378906 175.371094 L 388.738281 198.621094 L 373.414062 263.46875 L 275.050781 240.21875 Z M 290.378906 175.371094 " clip-rule="nonzero"/></clipPath><clipPath id="922f26d72c"><path d="M 281 212 L 383 212 L 383 235 L 281 235 Z M 281 212 " clip-rule="nonzero"/></clipPath><clipPath id="2a94bddf74"><path d="M 290.378906 175.371094 L 388.738281 198.621094 L 373.414062 263.46875 L 275.050781 240.21875 Z M 290.378906 175.371094 " clip-rule="nonzero"/></clipPath><clipPath id="089511fe49"><path d="M 290.378906 175.371094 L 388.738281 198.621094 L 373.414062 263.46875 L 275.050781 240.21875 Z M 290.378906 175.371094 " clip-rule="nonzero"/></clipPath><clipPath id="710a75f1b8"><path d="M 290.378906 175.371094 L 388.738281 198.621094 L 373.414062 263.46875 L 275.050781 240.21875 Z M 290.378906 175.371094 " clip-rule="nonzero"/></clipPath><clipPath id="a585bbd380"><path d="M 285.847656 194.765625 L 384.109375 217.988281 L 379.347656 238.136719 L 281.085938 214.910156 Z M 285.847656 194.765625 " clip-rule="nonzero"/></clipPath></defs><g clip-path="url(#5131f9b0db)"><path fill="#ffffff" d="M 0 0 L 424.5 0 L 424.5 283 L 0 283 Z M 0 0 " fill-opacity="1" fill-rule="nonzero"/><path fill="#ffffff" d="M 0 0 L 424.5 0 L 424.5 283 L 0 283 Z M 0 0 " fill-opacity="1" fill-rule="nonzero"/></g><g clip-path="url(#071c910d0a)"><path fill="#f4f3f0" d="M 26.835938 15.554688 L 397.738281 15.554688 L 397.738281 267.414062 L 26.835938 267.414062 Z M 26.835938 15.554688 " fill-opacity="1" fill-rule="nonzero"/></g><g mask="url(#e3320f5838)"><g transform="matrix(1, 0, 0, 1, 69, 172)"><g clip-path="url(#bf6dc4e39f)"><g clip-path="url(#3b09dfe615)"><path stroke-linecap="round" transform="matrix(0.74868, 0, 0, 0.74868, 0.495609, 0.769282)" fill="none" stroke-linejoin="miter" d="M 0.50153 0.501215 L 381.390876 0.501215 " stroke="#000000" stroke-width="1" stroke-opacity="1" stroke-miterlimit="4"/></g></g></g></g><g mask="url(#10d00b6676)"><g transform="matrix(1, 0, 0, 1, 69, 203)"><g clip-path="url(#599ab8926c)"><g clip-path="url(#ab162bf001)"><path stroke-linecap="round" transform="matrix(0.74868, 0, 0, 0.74868, 0.495609, 0.207785)" fill="none" stroke-linejoin="miter" d="M 0.50153 0.499875 L 381.390876 0.499875 " stroke="#000000" stroke-width="1" stroke-opacity="1" stroke-miterlimit="4"/></g></g></g></g><g mask="url(#f2deee37f8)"><g transform="matrix(1, 0, 0, 1, 69, 232)"><g clip-path="url(#034319d0a0)"><g clip-path="url(#51d220e189)"><path stroke-linecap="round" transform="matrix(0.74868, 0.000000000000000111, -0.000000000000000111, 0.74868, 0.495609, 0.834263)" fill="none" stroke-linejoin="miter" d="M 0.50153 0.497901 L 381.390876 0.497901 " stroke="#000000" stroke-width="1" stroke-opacity="1" stroke-miterlimit="4"/></g></g></g></g><g clip-path="url(#895d0f7354)"><g clip-path="url(#15610cf76b)"><g clip-path="url(#e646d413c1)"><g clip-path="url(#a07389f103)"><g clip-path="url(#f79273af1f)"><path fill="#100f0d" d="M 363.058594 257.515625 C 361.503906 258.691406 356.496094 256.585938 351.871094 250.472656 C 347.4375 244.605469 346.648438 239.410156 347.96875 237.960938 C 348.023438 237.898438 348.074219 237.835938 348.136719 237.785156 C 348.921875 237.195312 350.582031 237.4375 352.628906 238.605469 C 354.644531 239.753906 357.03125 241.796875 359.320312 244.828125 C 363.945312 250.941406 364.613281 256.335938 363.058594 257.515625 Z M 361.515625 243.167969 C 358.578125 239.285156 355.238281 236.558594 352.277344 235.382812 C 350.714844 234.761719 349.289062 233.84375 348.164062 232.589844 L 346.679688 230.933594 L 336.074219 228.21875 L 342.914062 237.261719 L 345.050781 237.558594 C 343.785156 240.894531 345.488281 246.589844 349.683594 252.132812 C 354.878906 259.003906 361.34375 262.261719 364.714844 259.707031 C 368.089844 257.152344 366.710938 250.042969 361.515625 243.167969 " fill-opacity="1" fill-rule="nonzero"/></g></g></g></g></g><g clip-path="url(#00c3ae34d7)"><g clip-path="url(#19922b4134)"><g clip-path="url(#efdc816bea)"><g clip-path="url(#bf775369c4)"><path fill="#100f0d" d="M 298.277344 178.246094 L 330.382812 220.691406 L 338.808594 222.160156 L 298.929688 177.710938 C 298.570312 177.304688 297.953125 177.816406 298.277344 178.246094 " fill-opacity="1" fill-rule="nonzero"/></g></g></g></g><g clip-path="url(#922f26d72c)"><g clip-path="url(#2a94bddf74)"><g clip-path="url(#089511fe49)"><g clip-path="url(#710a75f1b8)"><g clip-path="url(#a585bbd380)"><path fill="#100f0d" d="M 368.859375 230.085938 C 365.429688 228.160156 363.992188 224.191406 365.640625 221.292969 C 367.289062 218.394531 371.414062 217.621094 374.839844 219.570312 C 374.910156 219.609375 374.976562 219.648438 375.042969 219.691406 C 378.320312 221.675781 379.671875 225.519531 378.058594 228.363281 C 376.410156 231.261719 372.28125 232.035156 368.859375 230.085938 Z M 376.46875 216.703125 C 371.464844 213.855469 365.324219 215.183594 362.773438 219.664062 C 362.417969 220.292969 362.160156 220.953125 361.976562 221.625 C 361.964844 221.671875 361.921875 221.699219 361.875 221.6875 C 357.996094 220.84375 352.605469 220.972656 348.164062 224.320312 C 348.144531 224.335938 348.117188 224.34375 348.09375 224.339844 L 339.402344 222.824219 L 330.867188 221.335938 L 282.050781 212.824219 C 281.4375 212.714844 281.242188 213.617188 281.84375 213.773438 L 335.542969 227.515625 L 343.683594 229.597656 L 346.015625 230.195312 L 347.507812 230.578125 C 347.542969 230.585938 347.585938 230.570312 347.605469 230.539062 C 349.167969 228.148438 351.09375 226.753906 353.042969 225.984375 C 356.519531 224.609375 360.074219 225.207031 361.796875 225.652344 C 361.832031 225.660156 361.855469 225.6875 361.863281 225.722656 C 361.933594 226.078125 362.023438 226.433594 362.136719 226.78125 C 362.363281 227.492188 362.273438 228.261719 361.839844 228.867188 L 361.773438 228.957031 C 361.023438 230.003906 361.6875 231.472656 362.96875 231.597656 C 364.46875 231.746094 365.917969 232.207031 367.226562 232.953125 C 372.230469 235.800781 378.375 234.472656 380.921875 229.992188 C 383.472656 225.511719 381.472656 219.550781 376.46875 216.703125 " fill-opacity="1" fill-rule="nonzero"/></g></g></g></g></g><g fill="#000000" fill-opacity="1"><g transform="translate(167.588499, 116.905276)"><g><path d="M 9.890625 -6.078125 C 10.015625 -6.097656 10.117188 -6.070312 10.203125 -6 C 10.296875 -5.925781 10.351562 -5.832031 10.375 -5.71875 C 10.382812 -5.5625 10.332031 -5.425781 10.21875 -5.3125 C 9.382812 -4.582031 8.546875 -3.960938 7.703125 -3.453125 C 6.867188 -2.953125 6.035156 -2.546875 5.203125 -2.234375 C 4.367188 -1.929688 3.539062 -1.695312 2.71875 -1.53125 C 1.90625 -1.363281 1.109375 -1.234375 0.328125 -1.140625 C 0.171875 -1.128906 0 -1.117188 -0.1875 -1.109375 C -0.382812 -1.097656 -0.59375 -1.082031 -0.8125 -1.0625 C -1.707031 0.476562 -2.582031 2.015625 -3.4375 3.546875 C -4.300781 5.085938 -5.113281 6.582031 -5.875 8.03125 C -6.644531 9.476562 -7.351562 10.847656 -8 12.140625 C -8.65625 13.441406 -9.234375 14.632812 -9.734375 15.71875 C -9.628906 15.8125 -9.617188 15.960938 -9.703125 16.171875 C -10.078125 17.140625 -10.421875 17.644531 -10.734375 17.6875 C -10.929688 17.707031 -11.070312 17.660156 -11.15625 17.546875 C -11.25 17.441406 -11.273438 17.28125 -11.234375 17.0625 C -11.222656 17 -11.203125 16.929688 -11.171875 16.859375 C -11.148438 16.785156 -11.125 16.710938 -11.09375 16.640625 C -10.632812 15.597656 -10.078125 14.40625 -9.421875 13.0625 C -8.773438 11.726562 -8.046875 10.289062 -7.234375 8.75 C -6.429688 7.207031 -5.566406 5.601562 -4.640625 3.9375 C -3.722656 2.28125 -2.769531 0.613281 -1.78125 -1.0625 C -2.382812 -1.082031 -3.039062 -1.128906 -3.75 -1.203125 C -4.46875 -1.285156 -5.195312 -1.414062 -5.9375 -1.59375 C -6.132812 -1.625 -6.242188 -1.742188 -6.265625 -1.953125 C -6.273438 -2.078125 -6.242188 -2.1875 -6.171875 -2.28125 C -6.097656 -2.375 -6.007812 -2.425781 -5.90625 -2.4375 C -5.875 -2.445312 -5.84375 -2.445312 -5.8125 -2.4375 C -5.789062 -2.4375 -5.769531 -2.441406 -5.75 -2.453125 C -4.925781 -2.253906 -4.128906 -2.117188 -3.359375 -2.046875 C -2.597656 -1.972656 -1.910156 -1.9375 -1.296875 -1.9375 C -1.015625 -2.425781 -0.726562 -2.910156 -0.4375 -3.390625 C -0.144531 -3.867188 0.144531 -4.34375 0.4375 -4.8125 C 0.425781 -4.875 0.453125 -4.921875 0.515625 -4.953125 L 0.515625 -4.96875 C 2.097656 -7.613281 3.578125 -9.984375 4.953125 -12.078125 C 6.328125 -14.179688 7.566406 -15.976562 8.671875 -17.46875 C 9.785156 -18.957031 10.734375 -20.097656 11.515625 -20.890625 C 12.304688 -21.691406 12.921875 -22.117188 13.359375 -22.171875 C 13.640625 -22.203125 13.875 -22.144531 14.0625 -22 C 14.257812 -21.863281 14.375 -21.671875 14.40625 -21.421875 C 14.4375 -21.179688 14.351562 -20.8125 14.15625 -20.3125 C 13.96875 -19.820312 13.679688 -19.234375 13.296875 -18.546875 C 12.921875 -17.867188 12.46875 -17.128906 11.9375 -16.328125 C 11.40625 -15.535156 10.8125 -14.695312 10.15625 -13.8125 C 9.507812 -12.9375 8.816406 -12.054688 8.078125 -11.171875 C 7.347656 -10.285156 6.597656 -9.425781 5.828125 -8.59375 C 5.054688 -7.757812 4.269531 -6.976562 3.46875 -6.25 C 2.664062 -5.519531 1.875 -4.875 1.09375 -4.3125 L -0.296875 -1.96875 C -0.203125 -1.976562 -0.109375 -1.984375 -0.015625 -1.984375 C 0.0664062 -1.992188 0.144531 -2 0.21875 -2 C 0.988281 -2.09375 1.765625 -2.21875 2.546875 -2.375 C 3.328125 -2.539062 4.109375 -2.769531 4.890625 -3.0625 C 5.679688 -3.351562 6.472656 -3.734375 7.265625 -4.203125 C 8.054688 -4.671875 8.851562 -5.265625 9.65625 -5.984375 C 9.707031 -6.035156 9.785156 -6.066406 9.890625 -6.078125 Z M 2.4375 -6.5 C 3.1875 -7.15625 3.9375 -7.894531 4.6875 -8.71875 C 5.445312 -9.539062 6.195312 -10.394531 6.9375 -11.28125 C 7.675781 -12.175781 8.375 -13.070312 9.03125 -13.96875 C 9.695312 -14.875 10.304688 -15.734375 10.859375 -16.546875 C 11.410156 -17.367188 11.890625 -18.109375 12.296875 -18.765625 C 12.703125 -19.429688 13.015625 -19.976562 13.234375 -20.40625 C 13.453125 -20.84375 13.554688 -21.117188 13.546875 -21.234375 C 13.535156 -21.285156 13.503906 -21.304688 13.453125 -21.296875 C 13.222656 -21.265625 12.90625 -21.066406 12.5 -20.703125 C 12.101562 -20.335938 11.644531 -19.835938 11.125 -19.203125 C 10.601562 -18.566406 10.039062 -17.84375 9.4375 -17.03125 C 8.84375 -16.226562 8.226562 -15.367188 7.59375 -14.453125 C 6.957031 -13.535156 6.328125 -12.601562 5.703125 -11.65625 C 5.085938 -10.71875 4.5 -9.8125 3.9375 -8.9375 C 3.375 -8.0625 2.875 -7.25 2.4375 -6.5 Z M 2.4375 -6.5 "/></g></g></g><g fill="#000000" fill-opacity="1"><g transform="translate(176.826695, 115.822432)"><g><path d="M 12.390625 -6.375 C 12.492188 -6.382812 12.59375 -6.347656 12.6875 -6.265625 C 12.789062 -6.191406 12.847656 -6.101562 12.859375 -6 C 12.878906 -5.820312 12.820312 -5.6875 12.6875 -5.59375 C 12.019531 -5.101562 11.269531 -4.71875 10.4375 -4.4375 C 9.601562 -4.164062 8.726562 -4.003906 7.8125 -3.953125 C 6.894531 -3.898438 5.972656 -3.953125 5.046875 -4.109375 C 4.117188 -4.273438 3.222656 -4.554688 2.359375 -4.953125 C 2.460938 -4.503906 2.492188 -4.035156 2.453125 -3.546875 C 2.421875 -3.054688 2.328125 -2.570312 2.171875 -2.09375 C 2.023438 -1.625 1.820312 -1.191406 1.5625 -0.796875 C 1.3125 -0.398438 1.03125 -0.078125 0.71875 0.171875 C 0.40625 0.429688 0.0703125 0.582031 -0.28125 0.625 C -0.625 0.65625 -0.910156 0.554688 -1.140625 0.328125 C -1.378906 0.0976562 -1.523438 -0.222656 -1.578125 -0.640625 C -1.640625 -1.128906 -1.5625 -1.664062 -1.34375 -2.25 C -1.125 -2.84375 -0.789062 -3.425781 -0.34375 -4 C 0.09375 -4.582031 0.617188 -5.109375 1.234375 -5.578125 C 1.253906 -5.597656 1.269531 -5.625 1.28125 -5.65625 C 1.300781 -5.8125 1.375 -5.929688 1.5 -6.015625 C 1.632812 -6.097656 1.773438 -6.128906 1.921875 -6.109375 C 1.960938 -6.097656 1.992188 -6.097656 2.015625 -6.109375 C 2.128906 -6.191406 2.25 -6.265625 2.375 -6.328125 C 2.507812 -6.390625 2.632812 -6.453125 2.75 -6.515625 C 2.8125 -6.535156 2.859375 -6.546875 2.890625 -6.546875 C 3.003906 -6.554688 3.109375 -6.519531 3.203125 -6.4375 C 3.304688 -6.363281 3.363281 -6.273438 3.375 -6.171875 C 3.40625 -5.960938 3.320312 -5.8125 3.125 -5.71875 C 3.09375 -5.71875 3.066406 -5.710938 3.046875 -5.703125 C 3.035156 -5.691406 3.015625 -5.675781 2.984375 -5.65625 C 2.984375 -5.65625 2.976562 -5.65625 2.96875 -5.65625 C 3.75 -5.3125 4.550781 -5.070312 5.375 -4.9375 C 6.207031 -4.800781 7.035156 -4.757812 7.859375 -4.8125 C 8.679688 -4.863281 9.457031 -5.007812 10.1875 -5.25 C 10.925781 -5.5 11.585938 -5.847656 12.171875 -6.296875 C 12.234375 -6.335938 12.304688 -6.363281 12.390625 -6.375 Z M -0.375 -0.25 C -0.132812 -0.28125 0.09375 -0.394531 0.3125 -0.59375 C 0.539062 -0.800781 0.742188 -1.0625 0.921875 -1.375 C 1.097656 -1.695312 1.242188 -2.050781 1.359375 -2.4375 C 1.472656 -2.832031 1.546875 -3.222656 1.578125 -3.609375 C 1.617188 -4.003906 1.597656 -4.367188 1.515625 -4.703125 C 1.023438 -4.296875 0.609375 -3.859375 0.265625 -3.390625 C -0.078125 -2.921875 -0.335938 -2.453125 -0.515625 -1.984375 C -0.691406 -1.523438 -0.757812 -1.109375 -0.71875 -0.734375 C -0.675781 -0.390625 -0.5625 -0.226562 -0.375 -0.25 Z M -0.375 -0.25 "/></g></g></g><g fill="#000000" fill-opacity="1"><g transform="translate(188.557165, 114.44746)"><g><path d="M 1.40625 5.875 C 0.882812 5.9375 0.472656 5.851562 0.171875 5.625 C -0.128906 5.394531 -0.3125 5.035156 -0.375 4.546875 C -0.414062 4.160156 -0.351562 3.726562 -0.1875 3.25 C -0.0195312 2.769531 0.21875 2.257812 0.53125 1.71875 C 0.851562 1.175781 1.222656 0.609375 1.640625 0.015625 C 2.054688 -0.566406 2.492188 -1.15625 2.953125 -1.75 C 3.421875 -2.351562 3.898438 -2.957031 4.390625 -3.5625 C 4.910156 -4.195312 5.40625 -4.816406 5.875 -5.421875 C 6.34375 -6.023438 6.75 -6.582031 7.09375 -7.09375 C 7.445312 -7.601562 7.722656 -8.054688 7.921875 -8.453125 C 8.128906 -8.859375 8.21875 -9.1875 8.1875 -9.4375 C 8.175781 -9.59375 8.050781 -9.757812 7.8125 -9.9375 C 7.582031 -10.113281 7.203125 -10.34375 6.671875 -10.625 C 6.085938 -9.84375 5.472656 -9.066406 4.828125 -8.296875 C 4.179688 -7.523438 3.523438 -6.789062 2.859375 -6.09375 C 2.203125 -5.394531 1.578125 -4.773438 0.984375 -4.234375 C 0.921875 -4.171875 0.835938 -4.132812 0.734375 -4.125 C 0.617188 -4.113281 0.515625 -4.144531 0.421875 -4.21875 C 0.328125 -4.289062 0.273438 -4.390625 0.265625 -4.515625 C 0.242188 -4.671875 0.296875 -4.796875 0.421875 -4.890625 C 1.066406 -5.484375 1.707031 -6.117188 2.34375 -6.796875 C 2.988281 -7.472656 3.613281 -8.164062 4.21875 -8.875 C 4.820312 -9.59375 5.390625 -10.300781 5.921875 -11 C 5.328125 -11.289062 4.910156 -11.535156 4.671875 -11.734375 C 4.441406 -11.941406 4.3125 -12.164062 4.28125 -12.40625 C 4.25 -12.632812 4.3125 -12.90625 4.46875 -13.21875 C 4.625 -13.539062 4.835938 -13.882812 5.109375 -14.25 C 5.390625 -14.613281 5.707031 -14.96875 6.0625 -15.3125 C 6.425781 -15.664062 6.804688 -15.988281 7.203125 -16.28125 C 7.597656 -16.570312 7.976562 -16.816406 8.34375 -17.015625 C 8.71875 -17.210938 9.050781 -17.328125 9.34375 -17.359375 C 9.570312 -17.390625 9.757812 -17.34375 9.90625 -17.21875 C 10.050781 -17.101562 10.132812 -16.921875 10.15625 -16.671875 C 10.1875 -16.421875 10.085938 -16.039062 9.859375 -15.53125 C 9.640625 -15.03125 9.304688 -14.421875 8.859375 -13.703125 C 8.410156 -12.984375 7.859375 -12.179688 7.203125 -11.296875 C 7.296875 -11.222656 7.394531 -11.148438 7.5 -11.078125 C 7.601562 -11.003906 7.703125 -10.9375 7.796875 -10.875 C 8.140625 -10.644531 8.425781 -10.425781 8.65625 -10.21875 C 8.882812 -10.019531 9.015625 -9.789062 9.046875 -9.53125 C 9.085938 -9.195312 9 -8.785156 8.78125 -8.296875 C 8.570312 -7.816406 8.273438 -7.289062 7.890625 -6.71875 C 7.515625 -6.15625 7.078125 -5.554688 6.578125 -4.921875 C 6.085938 -4.296875 5.582031 -3.660156 5.0625 -3.015625 C 4.476562 -2.273438 3.90625 -1.539062 3.34375 -0.8125 C 2.78125 -0.09375 2.273438 0.585938 1.828125 1.234375 C 1.378906 1.890625 1.03125 2.488281 0.78125 3.03125 C 0.539062 3.582031 0.441406 4.050781 0.484375 4.4375 C 0.515625 4.6875 0.585938 4.851562 0.703125 4.9375 C 0.828125 5.03125 1.023438 5.0625 1.296875 5.03125 C 1.722656 4.976562 2.253906 4.800781 2.890625 4.5 C 3.535156 4.195312 4.25 3.796875 5.03125 3.296875 C 5.8125 2.796875 6.640625 2.226562 7.515625 1.59375 C 8.390625 0.957031 9.285156 0.28125 10.203125 -0.4375 C 11.117188 -1.15625 12.023438 -1.890625 12.921875 -2.640625 C 13.816406 -3.398438 14.675781 -4.140625 15.5 -4.859375 C 16.320312 -5.585938 17.09375 -6.28125 17.8125 -6.9375 C 17.875 -7 17.960938 -7.035156 18.078125 -7.046875 C 18.191406 -7.054688 18.289062 -7.023438 18.375 -6.953125 C 18.46875 -6.878906 18.523438 -6.785156 18.546875 -6.671875 C 18.554688 -6.515625 18.507812 -6.390625 18.40625 -6.296875 C 17.695312 -5.648438 16.921875 -4.953125 16.078125 -4.203125 C 15.234375 -3.460938 14.359375 -2.707031 13.453125 -1.9375 C 12.546875 -1.175781 11.617188 -0.429688 10.671875 0.296875 C 9.734375 1.023438 8.8125 1.710938 7.90625 2.359375 C 7.007812 3.003906 6.15625 3.582031 5.34375 4.09375 C 4.53125 4.613281 3.785156 5.023438 3.109375 5.328125 C 2.429688 5.640625 1.863281 5.820312 1.40625 5.875 Z M 6.4375 -11.703125 C 6.675781 -12.035156 6.945312 -12.421875 7.25 -12.859375 C 7.550781 -13.296875 7.84375 -13.734375 8.125 -14.171875 C 8.414062 -14.609375 8.660156 -15.007812 8.859375 -15.375 C 9.054688 -15.75 9.1875 -16.035156 9.25 -16.234375 C 9.257812 -16.304688 9.238281 -16.351562 9.1875 -16.375 C 9.144531 -16.40625 9.09375 -16.40625 9.03125 -16.375 C 8.820312 -16.3125 8.578125 -16.191406 8.296875 -16.015625 C 8.023438 -15.835938 7.738281 -15.625 7.4375 -15.375 C 7.144531 -15.125 6.859375 -14.859375 6.578125 -14.578125 C 6.296875 -14.304688 6.046875 -14.035156 5.828125 -13.765625 C 5.609375 -13.492188 5.429688 -13.25 5.296875 -13.03125 C 5.160156 -12.8125 5.101562 -12.640625 5.125 -12.515625 C 5.132812 -12.410156 5.570312 -12.140625 6.4375 -11.703125 Z M 6.4375 -11.703125 "/></g></g></g><g fill="#000000" fill-opacity="1"><g transform="translate(205.955165, 112.408176)"><g/></g></g><g fill="#000000" fill-opacity="1"><g transform="translate(217.937257, 111.00371)"><g><path d="M 15.671875 -6.71875 C 15.785156 -6.726562 15.890625 -6.691406 15.984375 -6.609375 C 16.085938 -6.535156 16.144531 -6.441406 16.15625 -6.328125 C 16.175781 -6.171875 16.132812 -6.050781 16.03125 -5.96875 C 15.476562 -5.5 14.820312 -4.945312 14.0625 -4.3125 C 13.300781 -3.675781 12.457031 -2.96875 11.53125 -2.1875 C 10.601562 -1.414062 9.597656 -0.601562 8.515625 0.25 C 7.441406 1.113281 6.320312 1.988281 5.15625 2.875 C 4.851562 3.394531 4.535156 3.914062 4.203125 4.4375 C 3.867188 4.96875 3.519531 5.476562 3.15625 5.96875 C 2.28125 7.195312 1.351562 8.425781 0.375 9.65625 C -0.59375 10.882812 -1.585938 12.09375 -2.609375 13.28125 C -3.640625 14.476562 -4.671875 15.613281 -5.703125 16.6875 C -6.734375 17.757812 -7.738281 18.753906 -8.71875 19.671875 C -9.695312 20.585938 -10.625 21.390625 -11.5 22.078125 C -12.375 22.773438 -13.175781 23.328125 -13.90625 23.734375 C -14.644531 24.140625 -15.28125 24.375 -15.8125 24.4375 C -16.238281 24.488281 -16.59375 24.410156 -16.875 24.203125 C -17.15625 23.992188 -17.320312 23.6875 -17.375 23.28125 C -17.445312 22.65625 -17.234375 21.90625 -16.734375 21.03125 C -16.242188 20.15625 -15.441406 19.125 -14.328125 17.9375 C -13.222656 16.757812 -11.785156 15.394531 -10.015625 13.84375 C -8.253906 12.289062 -6.140625 10.539062 -3.671875 8.59375 C -2.367188 7.570312 -1.054688 6.550781 0.265625 5.53125 C 1.585938 4.519531 2.882812 3.53125 4.15625 2.5625 L 4.5 2.296875 C 4.789062 1.796875 5.097656 1.226562 5.421875 0.59375 C 5.753906 -0.03125 6.078125 -0.675781 6.390625 -1.34375 C 6.710938 -2.019531 7.007812 -2.679688 7.28125 -3.328125 C 7.550781 -3.972656 7.773438 -4.550781 7.953125 -5.0625 C 8.140625 -5.582031 8.25 -6.003906 8.28125 -6.328125 C 8.289062 -6.421875 8.269531 -6.46875 8.21875 -6.46875 C 8.175781 -6.476562 8.128906 -6.457031 8.078125 -6.40625 C 7.929688 -6.320312 7.6875 -6.109375 7.34375 -5.765625 C 7 -5.429688 6.484375 -4.9375 5.796875 -4.28125 C 5.390625 -3.894531 4.957031 -3.484375 4.5 -3.046875 C 4.039062 -2.609375 3.578125 -2.1875 3.109375 -1.78125 C 2.648438 -1.382812 2.203125 -1.015625 1.765625 -0.671875 C 1.335938 -0.335938 0.929688 -0.0664062 0.546875 0.140625 C 0.160156 0.359375 -0.171875 0.484375 -0.453125 0.515625 C -0.773438 0.546875 -1.046875 0.476562 -1.265625 0.3125 C -1.484375 0.15625 -1.609375 -0.0703125 -1.640625 -0.375 C -1.660156 -0.570312 -1.617188 -0.832031 -1.515625 -1.15625 C -1.410156 -1.476562 -1.265625 -1.84375 -1.078125 -2.25 C -0.890625 -2.664062 -0.664062 -3.082031 -0.40625 -3.5 C -0.15625 -3.925781 0.101562 -4.347656 0.375 -4.765625 C 0.644531 -5.179688 0.914062 -5.5625 1.1875 -5.90625 C 1.457031 -6.25 1.695312 -6.539062 1.90625 -6.78125 C 1.988281 -6.851562 2.082031 -6.894531 2.1875 -6.90625 C 2.300781 -6.914062 2.40625 -6.878906 2.5 -6.796875 C 2.601562 -6.722656 2.660156 -6.628906 2.671875 -6.515625 C 2.679688 -6.398438 2.640625 -6.285156 2.546875 -6.171875 C 2.265625 -5.890625 1.960938 -5.53125 1.640625 -5.09375 C 1.328125 -4.664062 1.023438 -4.21875 0.734375 -3.75 C 0.453125 -3.28125 0.191406 -2.820312 -0.046875 -2.375 C -0.285156 -1.9375 -0.472656 -1.554688 -0.609375 -1.234375 C -0.742188 -0.921875 -0.804688 -0.691406 -0.796875 -0.546875 C -0.773438 -0.410156 -0.691406 -0.347656 -0.546875 -0.359375 C -0.316406 -0.390625 -0.0390625 -0.5 0.28125 -0.6875 C 0.601562 -0.882812 0.960938 -1.132812 1.359375 -1.4375 C 1.765625 -1.75 2.179688 -2.097656 2.609375 -2.484375 C 3.035156 -2.878906 3.46875 -3.285156 3.90625 -3.703125 C 4.351562 -4.117188 4.785156 -4.523438 5.203125 -4.921875 C 5.734375 -5.429688 6.175781 -5.847656 6.53125 -6.171875 C 6.894531 -6.492188 7.1875 -6.75 7.40625 -6.9375 C 7.632812 -7.125 7.816406 -7.257812 7.953125 -7.34375 C 8.097656 -7.425781 8.222656 -7.472656 8.328125 -7.484375 C 8.566406 -7.515625 8.753906 -7.460938 8.890625 -7.328125 C 9.035156 -7.191406 9.125 -7.003906 9.15625 -6.765625 C 9.175781 -6.546875 9.125 -6.191406 9 -5.703125 C 8.882812 -5.210938 8.695312 -4.617188 8.4375 -3.921875 C 8.1875 -3.234375 7.875 -2.472656 7.5 -1.640625 C 7.132812 -0.804688 6.707031 0.0625 6.21875 0.96875 C 8.207031 -0.539062 9.957031 -1.925781 11.46875 -3.1875 C 12.988281 -4.445312 14.304688 -5.578125 15.421875 -6.578125 C 15.503906 -6.660156 15.585938 -6.707031 15.671875 -6.71875 Z M 2.46875 5.46875 C 2.59375 5.300781 2.710938 5.125 2.828125 4.9375 C 2.953125 4.75 3.078125 4.566406 3.203125 4.390625 C 2.160156 5.191406 1.101562 6.003906 0.03125 6.828125 C -1.039062 7.648438 -2.09375 8.46875 -3.125 9.28125 C -7.78125 12.945312 -11.207031 15.921875 -13.40625 18.203125 C -15.601562 20.484375 -16.644531 22.140625 -16.53125 23.171875 C -16.488281 23.484375 -16.28125 23.617188 -15.90625 23.578125 C -15.445312 23.523438 -14.894531 23.316406 -14.25 22.953125 C -13.601562 22.585938 -12.875 22.082031 -12.0625 21.4375 C -11.25 20.800781 -10.378906 20.050781 -9.453125 19.1875 C -8.523438 18.320312 -7.554688 17.367188 -6.546875 16.328125 C -5.535156 15.285156 -4.519531 14.171875 -3.5 12.984375 C -2.476562 11.804688 -1.460938 10.585938 -0.453125 9.328125 C 0.554688 8.066406 1.53125 6.78125 2.46875 5.46875 Z M 2.46875 5.46875 "/></g></g></g><g fill="#000000" fill-opacity="1"><g transform="translate(233.034694, 109.234083)"><g><path d="M 12.390625 -6.375 C 12.492188 -6.382812 12.59375 -6.347656 12.6875 -6.265625 C 12.789062 -6.191406 12.847656 -6.101562 12.859375 -6 C 12.878906 -5.820312 12.820312 -5.6875 12.6875 -5.59375 C 12.019531 -5.101562 11.269531 -4.71875 10.4375 -4.4375 C 9.601562 -4.164062 8.726562 -4.003906 7.8125 -3.953125 C 6.894531 -3.898438 5.972656 -3.953125 5.046875 -4.109375 C 4.117188 -4.273438 3.222656 -4.554688 2.359375 -4.953125 C 2.460938 -4.503906 2.492188 -4.035156 2.453125 -3.546875 C 2.421875 -3.054688 2.328125 -2.570312 2.171875 -2.09375 C 2.023438 -1.625 1.820312 -1.191406 1.5625 -0.796875 C 1.3125 -0.398438 1.03125 -0.078125 0.71875 0.171875 C 0.40625 0.429688 0.0703125 0.582031 -0.28125 0.625 C -0.625 0.65625 -0.910156 0.554688 -1.140625 0.328125 C -1.378906 0.0976562 -1.523438 -0.222656 -1.578125 -0.640625 C -1.640625 -1.128906 -1.5625 -1.664062 -1.34375 -2.25 C -1.125 -2.84375 -0.789062 -3.425781 -0.34375 -4 C 0.09375 -4.582031 0.617188 -5.109375 1.234375 -5.578125 C 1.253906 -5.597656 1.269531 -5.625 1.28125 -5.65625 C 1.300781 -5.8125 1.375 -5.929688 1.5 -6.015625 C 1.632812 -6.097656 1.773438 -6.128906 1.921875 -6.109375 C 1.960938 -6.097656 1.992188 -6.097656 2.015625 -6.109375 C 2.128906 -6.191406 2.25 -6.265625 2.375 -6.328125 C 2.507812 -6.390625 2.632812 -6.453125 2.75 -6.515625 C 2.8125 -6.535156 2.859375 -6.546875 2.890625 -6.546875 C 3.003906 -6.554688 3.109375 -6.519531 3.203125 -6.4375 C 3.304688 -6.363281 3.363281 -6.273438 3.375 -6.171875 C 3.40625 -5.960938 3.320312 -5.8125 3.125 -5.71875 C 3.09375 -5.71875 3.066406 -5.710938 3.046875 -5.703125 C 3.035156 -5.691406 3.015625 -5.675781 2.984375 -5.65625 C 2.984375 -5.65625 2.976562 -5.65625 2.96875 -5.65625 C 3.75 -5.3125 4.550781 -5.070312 5.375 -4.9375 C 6.207031 -4.800781 7.035156 -4.757812 7.859375 -4.8125 C 8.679688 -4.863281 9.457031 -5.007812 10.1875 -5.25 C 10.925781 -5.5 11.585938 -5.847656 12.171875 -6.296875 C 12.234375 -6.335938 12.304688 -6.363281 12.390625 -6.375 Z M -0.375 -0.25 C -0.132812 -0.28125 0.09375 -0.394531 0.3125 -0.59375 C 0.539062 -0.800781 0.742188 -1.0625 0.921875 -1.375 C 1.097656 -1.695312 1.242188 -2.050781 1.359375 -2.4375 C 1.472656 -2.832031 1.546875 -3.222656 1.578125 -3.609375 C 1.617188 -4.003906 1.597656 -4.367188 1.515625 -4.703125 C 1.023438 -4.296875 0.609375 -3.859375 0.265625 -3.390625 C -0.078125 -2.921875 -0.335938 -2.453125 -0.515625 -1.984375 C -0.691406 -1.523438 -0.757812 -1.109375 -0.71875 -0.734375 C -0.675781 -0.390625 -0.5625 -0.226562 -0.375 -0.25 Z M -0.375 -0.25 "/></g></g></g><g fill="#000000" fill-opacity="1"><g transform="translate(244.765165, 107.85911)"><g><path d="M 15.5625 -6.796875 C 15.675781 -6.804688 15.78125 -6.769531 15.875 -6.6875 C 15.976562 -6.613281 16.035156 -6.519531 16.046875 -6.40625 C 16.066406 -6.25 16.015625 -6.125 15.890625 -6.03125 C 15.472656 -5.664062 14.992188 -5.285156 14.453125 -4.890625 C 13.910156 -4.492188 13.335938 -4.097656 12.734375 -3.703125 C 12.140625 -3.304688 11.535156 -2.929688 10.921875 -2.578125 C 10.316406 -2.234375 9.726562 -1.921875 9.15625 -1.640625 C 8.582031 -1.359375 8.054688 -1.125 7.578125 -0.9375 C 7.109375 -0.757812 6.710938 -0.65625 6.390625 -0.625 C 5.722656 -0.539062 5.191406 -0.625 4.796875 -0.875 C 4.398438 -1.132812 4.171875 -1.539062 4.109375 -2.09375 C 4.078125 -2.382812 4.09375 -2.679688 4.15625 -2.984375 C 4.226562 -3.296875 4.359375 -3.640625 4.546875 -4.015625 C 4.597656 -4.128906 4.609375 -4.195312 4.578125 -4.21875 C 4.546875 -4.25 4.488281 -4.222656 4.40625 -4.140625 C 4.144531 -3.878906 3.84375 -3.582031 3.5 -3.25 C 3.164062 -2.925781 2.8125 -2.59375 2.4375 -2.25 C 2.0625 -1.90625 1.691406 -1.585938 1.328125 -1.296875 C 0.972656 -1.015625 0.644531 -0.773438 0.34375 -0.578125 C 0.0390625 -0.390625 -0.203125 -0.285156 -0.390625 -0.265625 C -0.679688 -0.234375 -0.921875 -0.289062 -1.109375 -0.4375 C -1.296875 -0.59375 -1.410156 -0.816406 -1.453125 -1.109375 C -1.503906 -1.609375 -1.300781 -2.265625 -0.84375 -3.078125 C -0.382812 -3.890625 0.296875 -4.8125 1.203125 -5.84375 C 1.273438 -5.925781 1.367188 -5.972656 1.484375 -5.984375 C 1.597656 -5.992188 1.703125 -5.960938 1.796875 -5.890625 C 1.898438 -5.816406 1.957031 -5.722656 1.96875 -5.609375 C 1.988281 -5.453125 1.953125 -5.335938 1.859375 -5.265625 L 1.859375 -5.28125 C 1.066406 -4.351562 0.445312 -3.535156 0 -2.828125 C -0.445312 -2.128906 -0.648438 -1.613281 -0.609375 -1.28125 C -0.597656 -1.21875 -0.578125 -1.175781 -0.546875 -1.15625 C -0.515625 -1.132812 -0.484375 -1.128906 -0.453125 -1.140625 C -0.160156 -1.171875 0.34375 -1.5 1.0625 -2.125 C 1.789062 -2.75 2.773438 -3.691406 4.015625 -4.953125 C 4.546875 -5.492188 4.976562 -5.929688 5.3125 -6.265625 C 5.644531 -6.609375 5.910156 -6.863281 6.109375 -7.03125 C 6.316406 -7.207031 6.484375 -7.300781 6.609375 -7.3125 C 6.992188 -7.351562 7.179688 -7.238281 7.171875 -6.96875 C 7.171875 -6.707031 6.96875 -6.28125 6.5625 -5.6875 C 6.375 -5.4375 6.179688 -5.160156 5.984375 -4.859375 C 5.785156 -4.566406 5.609375 -4.269531 5.453125 -3.96875 C 5.296875 -3.664062 5.171875 -3.359375 5.078125 -3.046875 C 4.984375 -2.742188 4.953125 -2.460938 4.984375 -2.203125 C 5.015625 -1.898438 5.128906 -1.691406 5.328125 -1.578125 C 5.523438 -1.472656 5.84375 -1.445312 6.28125 -1.5 C 6.5625 -1.53125 6.914062 -1.625 7.34375 -1.78125 C 7.78125 -1.945312 8.269531 -2.160156 8.8125 -2.421875 C 9.351562 -2.679688 9.910156 -2.976562 10.484375 -3.3125 C 11.066406 -3.644531 11.644531 -4 12.21875 -4.375 C 12.800781 -4.757812 13.359375 -5.144531 13.890625 -5.53125 C 14.421875 -5.914062 14.898438 -6.296875 15.328125 -6.671875 C 15.378906 -6.742188 15.457031 -6.785156 15.5625 -6.796875 Z M 15.5625 -6.796875 "/></g></g></g><g fill="#000000" fill-opacity="1"><g transform="translate(90.111562, 84.124925)"><g><path d="M -0.703125 0 L -0.703125 -0.53125 C -0.117188 -0.726562 0.441406 -1.109375 0.984375 -1.671875 C 1.535156 -2.234375 2.128906 -3.300781 2.765625 -4.875 L 10.921875 -25.0625 C 11.171875 -25.726562 11.144531 -26.375 10.84375 -27 L 10.46875 -27.875 L 13.5625 -29.28125 L 23.734375 -4.84375 C 24.367188 -3.289062 24.941406 -2.234375 25.453125 -1.671875 C 25.960938 -1.109375 26.441406 -0.726562 26.890625 -0.53125 L 26.890625 0 L 20.46875 0 L 20.46875 -0.53125 C 21.101562 -0.726562 21.363281 -1.109375 21.25 -1.671875 C 21.144531 -2.234375 20.757812 -3.289062 20.09375 -4.84375 L 17.578125 -10.921875 L 5.921875 -10.921875 L 3.46875 -4.875 C 2.425781 -2.257812 2.59375 -0.8125 3.96875 -0.53125 L 3.96875 0 Z M 6.15625 -11.546875 L 17.328125 -11.546875 L 11.65625 -25.140625 Z M 6.15625 -11.546875 "/></g></g></g><g fill="#000000" fill-opacity="1"><g transform="translate(116.62004, 84.124925)"><g/></g></g><g fill="#000000" fill-opacity="1"><g transform="translate(125.304558, 84.124925)"><g><path d="M 17.375 0.40625 C 14.3125 0.40625 11.632812 -0.195312 9.34375 -1.40625 C 7.0625 -2.613281 5.289062 -4.3125 4.03125 -6.5 C 2.78125 -8.695312 2.15625 -11.285156 2.15625 -14.265625 C 2.15625 -16.335938 2.519531 -18.28125 3.25 -20.09375 C 3.976562 -21.914062 5.007812 -23.507812 6.34375 -24.875 C 7.6875 -26.238281 9.28125 -27.304688 11.125 -28.078125 C 12.96875 -28.847656 14.992188 -29.234375 17.203125 -29.234375 C 18.441406 -29.234375 19.660156 -29.128906 20.859375 -28.921875 C 22.066406 -28.722656 23.164062 -28.457031 24.15625 -28.125 C 25.144531 -27.789062 25.898438 -27.445312 26.421875 -27.09375 L 26.59375 -22.203125 L 26.1875 -22.125 C 25.6875 -23.3125 24.9375 -24.382812 23.9375 -25.34375 C 22.945312 -26.3125 21.785156 -27.078125 20.453125 -27.640625 C 19.117188 -28.210938 17.632812 -28.5 16 -28.5 C 14.019531 -28.5 12.242188 -28.050781 10.671875 -27.15625 C 9.097656 -26.257812 7.847656 -24.941406 6.921875 -23.203125 C 6.003906 -21.460938 5.53125 -19.328125 5.5 -16.796875 C 5.46875 -14.835938 5.742188 -12.890625 6.328125 -10.953125 C 6.910156 -9.023438 7.769531 -7.257812 8.90625 -5.65625 C 10.050781 -4.0625 11.4375 -2.785156 13.0625 -1.828125 C 14.695312 -0.878906 16.5625 -0.40625 18.65625 -0.40625 C 20.195312 -0.40625 21.585938 -0.769531 22.828125 -1.5 C 24.066406 -2.238281 24.953125 -3.117188 25.484375 -4.140625 L 25.4375 -8.359375 C 25.4375 -9.648438 25.304688 -10.582031 25.046875 -11.15625 C 24.785156 -11.738281 24.210938 -12.140625 23.328125 -12.359375 L 23.328125 -12.859375 L 28.75 -12.859375 L 28.75 -5.09375 C 27.945312 -3.988281 26.914062 -3.019531 25.65625 -2.1875 C 24.40625 -1.363281 23.0625 -0.722656 21.625 -0.265625 C 20.195312 0.179688 18.78125 0.40625 17.375 0.40625 Z M 17.375 0.40625 "/></g></g></g><g fill="#000000" fill-opacity="1"><g transform="translate(155.989876, 84.124925)"><g><path d="M 2.109375 0 L 2.109375 -0.53125 C 2.742188 -0.726562 3.175781 -1.144531 3.40625 -1.78125 C 3.644531 -2.414062 3.765625 -3.570312 3.765625 -5.25 L 3.765625 -23.703125 C 3.765625 -25.410156 3.644531 -26.570312 3.40625 -27.1875 C 3.175781 -27.8125 2.742188 -28.21875 2.109375 -28.40625 L 2.109375 -28.953125 L 8.8125 -28.953125 L 8.8125 -28.40625 C 8.175781 -28.21875 7.738281 -27.8125 7.5 -27.1875 C 7.269531 -26.570312 7.15625 -25.410156 7.15625 -23.703125 L 7.15625 -5.25 C 7.15625 -3.570312 7.269531 -2.414062 7.5 -1.78125 C 7.738281 -1.144531 8.175781 -0.726562 8.8125 -0.53125 L 8.8125 0 Z M 2.109375 0 "/></g></g></g><g fill="#000000" fill-opacity="1"><g transform="translate(166.90756, 84.124925)"><g><path d="M 2.109375 0 L 2.109375 -0.53125 C 2.742188 -0.726562 3.175781 -1.144531 3.40625 -1.78125 C 3.644531 -2.414062 3.765625 -3.570312 3.765625 -5.25 L 3.765625 -23.703125 C 3.765625 -25.410156 3.644531 -26.570312 3.40625 -27.1875 C 3.175781 -27.8125 2.742188 -28.21875 2.109375 -28.40625 L 2.109375 -28.953125 L 21.59375 -28.953125 L 21.96875 -24.609375 L 21.5 -24.484375 C 20.8125 -25.859375 19.957031 -26.835938 18.9375 -27.421875 C 17.914062 -28.003906 16.425781 -28.296875 14.46875 -28.296875 L 7.15625 -28.296875 L 7.15625 -16.171875 L 12.078125 -16.171875 C 13.648438 -16.171875 14.867188 -16.273438 15.734375 -16.484375 C 16.609375 -16.691406 17.242188 -17 17.640625 -17.40625 C 18.035156 -17.820312 18.316406 -18.332031 18.484375 -18.9375 L 18.984375 -18.9375 L 18.984375 -12.65625 L 18.484375 -12.65625 C 18.316406 -13.289062 18.035156 -13.8125 17.640625 -14.21875 C 17.242188 -14.632812 16.609375 -14.953125 15.734375 -15.171875 C 14.867188 -15.398438 13.648438 -15.515625 12.078125 -15.515625 L 7.15625 -15.515625 L 7.15625 -5.25 C 7.15625 -3.570312 7.269531 -2.414062 7.5 -1.78125 C 7.738281 -1.144531 8.175781 -0.726562 8.8125 -0.53125 L 8.8125 0 Z M 2.109375 0 "/></g></g></g><g fill="#000000" fill-opacity="1"><g transform="translate(190.024928, 84.124925)"><g><path d="M 8.234375 0 L 8.234375 -0.53125 C 8.867188 -0.726562 9.300781 -1.144531 9.53125 -1.78125 C 9.769531 -2.414062 9.890625 -3.570312 9.890625 -5.25 L 9.890625 -28.296875 L 7.859375 -28.296875 C 6.015625 -28.296875 4.609375 -28.003906 3.640625 -27.421875 C 2.671875 -26.835938 1.828125 -25.800781 1.109375 -24.3125 L 0.65625 -24.40625 L 0.90625 -28.953125 L 22.203125 -28.953125 L 22.453125 -24.40625 L 22 -24.3125 C 21.3125 -25.800781 20.484375 -26.835938 19.515625 -27.421875 C 18.554688 -28.003906 17.140625 -28.296875 15.265625 -28.296875 L 13.3125 -28.296875 L 13.3125 -5.25 C 13.3125 -3.570312 13.425781 -2.414062 13.65625 -1.78125 C 13.894531 -1.144531 14.332031 -0.726562 14.96875 -0.53125 L 14.96875 0 Z M 8.234375 0 "/></g></g></g><g fill="#000000" fill-opacity="1"><g transform="translate(213.183657, 84.124925)"><g/></g></g><g fill="#000000" fill-opacity="1"><g transform="translate(221.868175, 84.124925)"><g><path d="M 17.75 0.40625 C 14.570312 0.40625 11.816406 -0.15625 9.484375 -1.28125 C 7.160156 -2.414062 5.359375 -4.050781 4.078125 -6.1875 C 2.796875 -8.320312 2.15625 -10.890625 2.15625 -13.890625 C 2.15625 -16.097656 2.550781 -18.128906 3.34375 -19.984375 C 4.144531 -21.847656 5.28125 -23.476562 6.75 -24.875 C 8.226562 -26.269531 9.984375 -27.34375 12.015625 -28.09375 C 14.046875 -28.851562 16.269531 -29.234375 18.6875 -29.234375 C 19.875 -29.234375 21.082031 -29.128906 22.3125 -28.921875 C 23.539062 -28.722656 24.664062 -28.46875 25.6875 -28.15625 C 26.707031 -27.851562 27.476562 -27.523438 28 -27.171875 L 28.171875 -22.25 L 27.75 -22.171875 C 26.945312 -24.046875 25.613281 -25.5625 23.75 -26.71875 C 21.894531 -27.875 19.738281 -28.453125 17.28125 -28.453125 C 15.101562 -28.453125 13.132812 -27.96875 11.375 -27 C 9.613281 -26.039062 8.210938 -24.609375 7.171875 -22.703125 C 6.140625 -20.804688 5.625 -18.453125 5.625 -15.640625 C 5.625 -13.703125 5.90625 -11.820312 6.46875 -10 C 7.039062 -8.1875 7.890625 -6.554688 9.015625 -5.109375 C 10.148438 -3.660156 11.539062 -2.515625 13.1875 -1.671875 C 14.84375 -0.828125 16.75 -0.40625 18.90625 -0.40625 C 21.132812 -0.40625 23.082031 -0.984375 24.75 -2.140625 C 26.414062 -3.304688 27.648438 -5.003906 28.453125 -7.234375 L 28.90625 -7.203125 L 28.25 -1.8125 C 27.28125 -1.289062 25.863281 -0.789062 24 -0.3125 C 22.144531 0.164062 20.0625 0.40625 17.75 0.40625 Z M 17.75 0.40625 "/></g></g></g><g fill="#000000" fill-opacity="1"><g transform="translate(252.512132, 84.124925)"><g><path d="M -0.703125 0 L -0.703125 -0.53125 C -0.117188 -0.726562 0.441406 -1.109375 0.984375 -1.671875 C 1.535156 -2.234375 2.128906 -3.300781 2.765625 -4.875 L 10.921875 -25.0625 C 11.171875 -25.726562 11.144531 -26.375 10.84375 -27 L 10.46875 -27.875 L 13.5625 -29.28125 L 23.734375 -4.84375 C 24.367188 -3.289062 24.941406 -2.234375 25.453125 -1.671875 C 25.960938 -1.109375 26.441406 -0.726562 26.890625 -0.53125 L 26.890625 0 L 20.46875 0 L 20.46875 -0.53125 C 21.101562 -0.726562 21.363281 -1.109375 21.25 -1.671875 C 21.144531 -2.234375 20.757812 -3.289062 20.09375 -4.84375 L 17.578125 -10.921875 L 5.921875 -10.921875 L 3.46875 -4.875 C 2.425781 -2.257812 2.59375 -0.8125 3.96875 -0.53125 L 3.96875 0 Z M 6.15625 -11.546875 L 17.328125 -11.546875 L 11.65625 -25.140625 Z M 6.15625 -11.546875 "/></g></g></g><g fill="#000000" fill-opacity="1"><g transform="translate(279.02061, 84.124925)"><g><path d="M 23.15625 0.296875 C 22.113281 0.296875 21.285156 0.0390625 20.671875 -0.46875 C 20.066406 -0.976562 19.535156 -1.722656 19.078125 -2.703125 C 18.628906 -3.679688 18.101562 -4.890625 17.5 -6.328125 C 16.882812 -7.765625 16.367188 -9.019531 15.953125 -10.09375 C 15.546875 -11.164062 15.097656 -12.0625 14.609375 -12.78125 C 14.128906 -13.5 13.515625 -14.035156 12.765625 -14.390625 C 12.023438 -14.753906 11.035156 -14.9375 9.796875 -14.9375 L 7.15625 -14.9375 L 7.15625 -5.25 C 7.15625 -3.570312 7.269531 -2.414062 7.5 -1.78125 C 7.738281 -1.144531 8.175781 -0.726562 8.8125 -0.53125 L 8.8125 0 L 2.109375 0 L 2.109375 -0.53125 C 2.742188 -0.726562 3.175781 -1.144531 3.40625 -1.78125 C 3.644531 -2.414062 3.765625 -3.570312 3.765625 -5.25 L 3.765625 -23.703125 C 3.765625 -25.410156 3.644531 -26.570312 3.40625 -27.1875 C 3.175781 -27.8125 2.742188 -28.21875 2.109375 -28.40625 L 2.109375 -28.953125 L 10.25 -28.953125 C 13.0625 -28.953125 15.253906 -28.664062 16.828125 -28.09375 C 18.398438 -27.53125 19.507812 -26.765625 20.15625 -25.796875 C 20.8125 -24.835938 21.140625 -23.738281 21.140625 -22.5 C 21.140625 -20.570312 20.445312 -18.925781 19.0625 -17.5625 C 17.6875 -16.195312 15.648438 -15.363281 12.953125 -15.0625 C 14.210938 -14.894531 15.242188 -14.609375 16.046875 -14.203125 C 16.847656 -13.804688 17.507812 -13.269531 18.03125 -12.59375 C 18.550781 -11.914062 19.019531 -11.09375 19.4375 -10.125 C 19.851562 -9.164062 20.304688 -8.050781 20.796875 -6.78125 C 21.460938 -5.125 22.019531 -3.84375 22.46875 -2.9375 C 22.925781 -2.03125 23.347656 -1.390625 23.734375 -1.015625 C 24.117188 -0.640625 24.546875 -0.453125 25.015625 -0.453125 C 25.160156 -0.453125 25.28125 -0.453125 25.375 -0.453125 C 25.46875 -0.453125 25.570312 -0.46875 25.6875 -0.5 L 25.6875 0 C 25.382812 0.113281 24.988281 0.191406 24.5 0.234375 C 24.019531 0.273438 23.570312 0.296875 23.15625 0.296875 Z M 7.15625 -15.546875 L 10.625 -15.546875 C 13 -15.546875 14.757812 -16.101562 15.90625 -17.21875 C 17.050781 -18.34375 17.625 -19.785156 17.625 -21.546875 C 17.625 -22.785156 17.335938 -23.914062 16.765625 -24.9375 C 16.203125 -25.957031 15.289062 -26.773438 14.03125 -27.390625 C 12.78125 -28.015625 11.132812 -28.328125 9.09375 -28.328125 C 8.789062 -28.328125 8.472656 -28.320312 8.140625 -28.3125 C 7.816406 -28.300781 7.488281 -28.28125 7.15625 -28.25 Z M 7.15625 -15.546875 "/></g></g></g><g fill="#000000" fill-opacity="1"><g transform="translate(304.329796, 84.124925)"><g><path d="M 2.109375 0 L 2.109375 -0.53125 C 2.742188 -0.726562 3.175781 -1.144531 3.40625 -1.78125 C 3.644531 -2.414062 3.765625 -3.570312 3.765625 -5.25 L 3.765625 -23.703125 C 3.765625 -25.410156 3.644531 -26.570312 3.40625 -27.1875 C 3.175781 -27.8125 2.742188 -28.21875 2.109375 -28.40625 L 2.109375 -28.953125 L 12 -28.953125 C 14.832031 -28.953125 17.253906 -28.546875 19.265625 -27.734375 C 21.285156 -26.921875 22.925781 -25.835938 24.1875 -24.484375 C 25.457031 -23.128906 26.390625 -21.628906 26.984375 -19.984375 C 27.578125 -18.347656 27.875 -16.691406 27.875 -15.015625 C 27.90625 -12.117188 27.304688 -9.539062 26.078125 -7.28125 C 24.847656 -5.019531 23.109375 -3.238281 20.859375 -1.9375 C 18.617188 -0.644531 15.984375 0 12.953125 0 Z M 7.15625 -3.640625 C 7.15625 -2.671875 7.316406 -1.925781 7.640625 -1.40625 C 7.972656 -0.882812 8.707031 -0.625 9.84375 -0.625 L 12.859375 -0.625 C 16.472656 -0.625 19.25 -1.660156 21.1875 -3.734375 C 23.132812 -5.816406 24.109375 -9.023438 24.109375 -13.359375 C 24.109375 -16.117188 23.570312 -18.628906 22.5 -20.890625 C 21.425781 -23.148438 19.835938 -24.953125 17.734375 -26.296875 C 15.640625 -27.648438 13.050781 -28.328125 9.96875 -28.328125 L 7.15625 -28.328125 Z M 7.15625 -3.640625 "/></g></g></g><g fill="#000000" fill-opacity="1"><g transform="translate(73.436616, 163.210969)"><g><path d="M 0.625 -5.171875 C 0.519531 -5.460938 0.40625 -5.675781 0.28125 -5.8125 C 0.164062 -5.945312 0.0625 -6.039062 -0.03125 -6.09375 L -0.03125 -6.21875 L 1.59375 -6.21875 L 1.59375 -6.09375 C 1.445312 -6.039062 1.390625 -5.945312 1.421875 -5.8125 C 1.460938 -5.675781 1.539062 -5.460938 1.65625 -5.171875 L 3.28125 -1.015625 L 4.890625 -5.171875 C 5.003906 -5.460938 5.046875 -5.675781 5.015625 -5.8125 C 4.992188 -5.957031 4.90625 -6.050781 4.75 -6.09375 L 4.75 -6.21875 L 5.78125 -6.21875 L 5.78125 -6.09375 C 5.65625 -6.039062 5.53125 -5.945312 5.40625 -5.8125 C 5.289062 -5.675781 5.175781 -5.460938 5.0625 -5.171875 L 3.046875 0 L 2.71875 0 Z M 0.625 -5.171875 "/></g></g></g><g fill="#000000" fill-opacity="1"><g transform="translate(80.514255, 163.210969)"><g><path d="M 3.65625 0.09375 C 3.28125 0.09375 2.90625 0.03125 2.53125 -0.09375 C 2.15625 -0.226562 1.8125 -0.425781 1.5 -0.6875 C 1.1875 -0.945312 0.9375 -1.28125 0.75 -1.6875 C 0.570312 -2.09375 0.484375 -2.578125 0.484375 -3.140625 C 0.484375 -3.578125 0.554688 -3.984375 0.703125 -4.359375 C 0.859375 -4.742188 1.078125 -5.078125 1.359375 -5.359375 C 1.640625 -5.648438 1.972656 -5.875 2.359375 -6.03125 C 2.753906 -6.195312 3.1875 -6.28125 3.65625 -6.28125 C 4.03125 -6.28125 4.40625 -6.210938 4.78125 -6.078125 C 5.15625 -5.953125 5.492188 -5.757812 5.796875 -5.5 C 6.109375 -5.238281 6.359375 -4.90625 6.546875 -4.5 C 6.734375 -4.09375 6.828125 -3.617188 6.828125 -3.078125 C 6.828125 -2.535156 6.734375 -2.066406 6.546875 -1.671875 C 6.359375 -1.273438 6.109375 -0.945312 5.796875 -0.6875 C 5.484375 -0.425781 5.140625 -0.226562 4.765625 -0.09375 C 4.398438 0.03125 4.03125 0.09375 3.65625 0.09375 Z M 1.40625 -3.671875 C 1.4375 -3.234375 1.523438 -2.800781 1.671875 -2.375 C 1.828125 -1.957031 2.023438 -1.582031 2.265625 -1.25 C 2.503906 -0.925781 2.785156 -0.664062 3.109375 -0.46875 C 3.429688 -0.28125 3.78125 -0.1875 4.15625 -0.1875 C 4.613281 -0.1875 4.972656 -0.285156 5.234375 -0.484375 C 5.503906 -0.691406 5.691406 -0.960938 5.796875 -1.296875 C 5.910156 -1.628906 5.953125 -1.988281 5.921875 -2.375 C 5.890625 -2.851562 5.800781 -3.3125 5.65625 -3.75 C 5.519531 -4.1875 5.332031 -4.578125 5.09375 -4.921875 C 4.851562 -5.273438 4.570312 -5.550781 4.25 -5.75 C 3.925781 -5.945312 3.570312 -6.046875 3.1875 -6.046875 C 2.789062 -6.046875 2.453125 -5.945312 2.171875 -5.75 C 1.890625 -5.5625 1.679688 -5.285156 1.546875 -4.921875 C 1.421875 -4.566406 1.375 -4.148438 1.40625 -3.671875 Z M 1.40625 -3.671875 "/></g></g></g><g fill="#000000" fill-opacity="1"><g transform="translate(89.117252, 163.210969)"><g><path d="M 3.65625 0.09375 C 3.28125 0.09375 2.90625 0.03125 2.53125 -0.09375 C 2.15625 -0.226562 1.8125 -0.425781 1.5 -0.6875 C 1.1875 -0.945312 0.9375 -1.28125 0.75 -1.6875 C 0.570312 -2.09375 0.484375 -2.578125 0.484375 -3.140625 C 0.484375 -3.578125 0.554688 -3.984375 0.703125 -4.359375 C 0.859375 -4.742188 1.078125 -5.078125 1.359375 -5.359375 C 1.640625 -5.648438 1.972656 -5.875 2.359375 -6.03125 C 2.753906 -6.195312 3.1875 -6.28125 3.65625 -6.28125 C 4.03125 -6.28125 4.40625 -6.210938 4.78125 -6.078125 C 5.15625 -5.953125 5.492188 -5.757812 5.796875 -5.5 C 6.109375 -5.238281 6.359375 -4.90625 6.546875 -4.5 C 6.734375 -4.09375 6.828125 -3.617188 6.828125 -3.078125 C 6.828125 -2.535156 6.734375 -2.066406 6.546875 -1.671875 C 6.359375 -1.273438 6.109375 -0.945312 5.796875 -0.6875 C 5.484375 -0.425781 5.140625 -0.226562 4.765625 -0.09375 C 4.398438 0.03125 4.03125 0.09375 3.65625 0.09375 Z M 1.40625 -3.671875 C 1.4375 -3.234375 1.523438 -2.800781 1.671875 -2.375 C 1.828125 -1.957031 2.023438 -1.582031 2.265625 -1.25 C 2.503906 -0.925781 2.785156 -0.664062 3.109375 -0.46875 C 3.429688 -0.28125 3.78125 -0.1875 4.15625 -0.1875 C 4.613281 -0.1875 4.972656 -0.285156 5.234375 -0.484375 C 5.503906 -0.691406 5.691406 -0.960938 5.796875 -1.296875 C 5.910156 -1.628906 5.953125 -1.988281 5.921875 -2.375 C 5.890625 -2.851562 5.800781 -3.3125 5.65625 -3.75 C 5.519531 -4.1875 5.332031 -4.578125 5.09375 -4.921875 C 4.851562 -5.273438 4.570312 -5.550781 4.25 -5.75 C 3.925781 -5.945312 3.570312 -6.046875 3.1875 -6.046875 C 2.789062 -6.046875 2.453125 -5.945312 2.171875 -5.75 C 1.890625 -5.5625 1.679688 -5.285156 1.546875 -4.921875 C 1.421875 -4.566406 1.375 -4.148438 1.40625 -3.671875 Z M 1.40625 -3.671875 "/></g></g></g><g fill="#000000" fill-opacity="1"><g transform="translate(97.720248, 163.210969)"><g><path d="M 4.9375 0.0625 C 4.695312 0.0625 4.503906 0.0078125 4.359375 -0.09375 C 4.210938 -0.207031 4.082031 -0.375 3.96875 -0.59375 C 3.863281 -0.820312 3.738281 -1.109375 3.59375 -1.453125 C 3.46875 -1.773438 3.359375 -2.046875 3.265625 -2.265625 C 3.179688 -2.492188 3.097656 -2.675781 3.015625 -2.8125 C 2.929688 -2.945312 2.828125 -3.039062 2.703125 -3.09375 C 2.585938 -3.15625 2.429688 -3.1875 2.234375 -3.1875 L 1.71875 -3.1875 L 1.71875 -1.125 C 1.71875 -0.800781 1.738281 -0.5625 1.78125 -0.40625 C 1.820312 -0.257812 1.914062 -0.164062 2.0625 -0.125 L 2.0625 0 L 0.421875 0 L 0.421875 -0.125 C 0.566406 -0.164062 0.660156 -0.257812 0.703125 -0.40625 C 0.742188 -0.5625 0.765625 -0.800781 0.765625 -1.125 L 0.765625 -5.078125 C 0.765625 -5.398438 0.742188 -5.632812 0.703125 -5.78125 C 0.660156 -5.9375 0.566406 -6.039062 0.421875 -6.09375 L 0.421875 -6.21875 L 2.28125 -6.21875 C 2.769531 -6.21875 3.164062 -6.175781 3.46875 -6.09375 C 3.769531 -6.007812 4.003906 -5.898438 4.171875 -5.765625 C 4.335938 -5.640625 4.453125 -5.488281 4.515625 -5.3125 C 4.578125 -5.144531 4.609375 -4.972656 4.609375 -4.796875 C 4.609375 -4.390625 4.46875 -4.039062 4.1875 -3.75 C 3.90625 -3.46875 3.46875 -3.289062 2.875 -3.21875 C 3.125 -3.1875 3.328125 -3.132812 3.484375 -3.0625 C 3.648438 -3 3.789062 -2.898438 3.90625 -2.765625 C 4.019531 -2.628906 4.125 -2.457031 4.21875 -2.25 C 4.3125 -2.050781 4.421875 -1.804688 4.546875 -1.515625 C 4.703125 -1.117188 4.820312 -0.816406 4.90625 -0.609375 C 5 -0.410156 5.082031 -0.273438 5.15625 -0.203125 C 5.238281 -0.140625 5.332031 -0.109375 5.4375 -0.109375 C 5.457031 -0.109375 5.476562 -0.109375 5.5 -0.109375 C 5.519531 -0.109375 5.546875 -0.113281 5.578125 -0.125 L 5.578125 0 C 5.472656 0.0195312 5.359375 0.0351562 5.234375 0.046875 C 5.109375 0.0546875 5.007812 0.0625 4.9375 0.0625 Z M 1.71875 -3.328125 L 2.28125 -3.328125 C 2.613281 -3.328125 2.882812 -3.382812 3.09375 -3.5 C 3.300781 -3.613281 3.445312 -3.765625 3.53125 -3.953125 C 3.625 -4.148438 3.671875 -4.359375 3.671875 -4.578125 C 3.671875 -4.816406 3.617188 -5.050781 3.515625 -5.28125 C 3.410156 -5.507812 3.238281 -5.695312 3 -5.84375 C 2.769531 -6 2.472656 -6.078125 2.109375 -6.078125 C 1.984375 -6.078125 1.851562 -6.066406 1.71875 -6.046875 Z M 1.71875 -3.328125 "/></g></g></g><g fill="#000000" fill-opacity="1"><g transform="translate(104.53184, 163.210969)"><g><path d="M 1.015625 0.0625 C 0.867188 0.0625 0.742188 0.0078125 0.640625 -0.09375 C 0.535156 -0.195312 0.484375 -0.328125 0.484375 -0.484375 C 0.484375 -0.628906 0.535156 -0.753906 0.640625 -0.859375 C 0.742188 -0.960938 0.867188 -1.015625 1.015625 -1.015625 C 1.148438 -1.015625 1.269531 -0.960938 1.375 -0.859375 C 1.476562 -0.753906 1.53125 -0.628906 1.53125 -0.484375 C 1.53125 -0.328125 1.476562 -0.195312 1.375 -0.09375 C 1.269531 0.0078125 1.148438 0.0625 1.015625 0.0625 Z M 0.484375 -3.40625 C 0.484375 -3.550781 0.535156 -3.675781 0.640625 -3.78125 C 0.742188 -3.882812 0.867188 -3.9375 1.015625 -3.9375 C 1.148438 -3.9375 1.269531 -3.882812 1.375 -3.78125 C 1.476562 -3.675781 1.53125 -3.550781 1.53125 -3.40625 C 1.53125 -3.257812 1.476562 -3.128906 1.375 -3.015625 C 1.269531 -2.910156 1.148438 -2.859375 1.015625 -2.859375 C 0.867188 -2.859375 0.742188 -2.910156 0.640625 -3.015625 C 0.535156 -3.128906 0.484375 -3.257812 0.484375 -3.40625 Z M 0.484375 -3.40625 "/></g></g></g><g fill="#000000" fill-opacity="1"><g transform="translate(73.436616, 193.89443)"><g><path d="M 0.625 -5.171875 C 0.519531 -5.460938 0.40625 -5.675781 0.28125 -5.8125 C 0.164062 -5.945312 0.0625 -6.039062 -0.03125 -6.09375 L -0.03125 -6.21875 L 1.59375 -6.21875 L 1.59375 -6.09375 C 1.445312 -6.039062 1.390625 -5.945312 1.421875 -5.8125 C 1.460938 -5.675781 1.539062 -5.460938 1.65625 -5.171875 L 3.28125 -1.015625 L 4.890625 -5.171875 C 5.003906 -5.460938 5.046875 -5.675781 5.015625 -5.8125 C 4.992188 -5.957031 4.90625 -6.050781 4.75 -6.09375 L 4.75 -6.21875 L 5.78125 -6.21875 L 5.78125 -6.09375 C 5.65625 -6.039062 5.53125 -5.945312 5.40625 -5.8125 C 5.289062 -5.675781 5.175781 -5.460938 5.0625 -5.171875 L 3.046875 0 L 2.71875 0 Z M 0.625 -5.171875 "/></g></g></g><g fill="#000000" fill-opacity="1"><g transform="translate(80.514233, 193.89443)"><g><path d="M -0.1875 0 L -0.1875 -0.125 C -0.0507812 -0.164062 0.0703125 -0.253906 0.1875 -0.390625 C 0.3125 -0.535156 0.4375 -0.753906 0.5625 -1.046875 L 2.21875 -5.171875 C 2.28125 -5.328125 2.273438 -5.484375 2.203125 -5.640625 L 2.078125 -5.890625 L 2.953125 -6.28125 L 5.15625 -1.03125 C 5.28125 -0.75 5.398438 -0.535156 5.515625 -0.390625 C 5.628906 -0.253906 5.738281 -0.164062 5.84375 -0.125 L 5.84375 0 L 4.21875 0 L 4.21875 -0.125 C 4.375 -0.164062 4.429688 -0.253906 4.390625 -0.390625 C 4.347656 -0.535156 4.265625 -0.75 4.140625 -1.03125 L 3.609375 -2.3125 L 1.25 -2.3125 L 0.734375 -1.046875 C 0.609375 -0.753906 0.554688 -0.535156 0.578125 -0.390625 C 0.609375 -0.242188 0.695312 -0.15625 0.84375 -0.125 L 0.84375 0 Z M 1.296875 -2.453125 L 3.546875 -2.453125 L 2.40625 -5.203125 Z M 1.296875 -2.453125 "/></g></g></g><g fill="#000000" fill-opacity="1"><g transform="translate(87.547504, 193.89443)"><g><path d="M 5.09375 0.078125 L 0.9375 -5.1875 L 0.9375 -1.65625 C 0.9375 -1.300781 0.957031 -1.019531 1 -0.8125 C 1.050781 -0.601562 1.125 -0.445312 1.21875 -0.34375 C 1.320312 -0.238281 1.453125 -0.164062 1.609375 -0.125 L 1.609375 0 L 0.421875 0 L 0.421875 -0.125 C 0.566406 -0.164062 0.660156 -0.257812 0.703125 -0.40625 C 0.742188 -0.5625 0.765625 -0.800781 0.765625 -1.125 L 0.765625 -5.078125 C 0.765625 -5.398438 0.734375 -5.632812 0.671875 -5.78125 C 0.617188 -5.9375 0.5 -6.039062 0.3125 -6.09375 L 0.3125 -6.21875 L 1.3125 -6.21875 L 5.046875 -1.546875 L 5.046875 -4.546875 C 5.046875 -4.910156 5.019531 -5.195312 4.96875 -5.40625 C 4.925781 -5.613281 4.851562 -5.765625 4.75 -5.859375 C 4.644531 -5.960938 4.515625 -6.039062 4.359375 -6.09375 L 4.359375 -6.21875 L 5.5625 -6.21875 L 5.5625 -6.09375 C 5.414062 -6.039062 5.316406 -5.9375 5.265625 -5.78125 C 5.222656 -5.632812 5.203125 -5.398438 5.203125 -5.078125 L 5.203125 0.078125 Z M 5.09375 0.078125 "/></g></g></g><g fill="#000000" fill-opacity="1"><g transform="translate(94.749272, 193.89443)"><g><path d="M 1.015625 0.0625 C 0.867188 0.0625 0.742188 0.0078125 0.640625 -0.09375 C 0.535156 -0.195312 0.484375 -0.328125 0.484375 -0.484375 C 0.484375 -0.628906 0.535156 -0.753906 0.640625 -0.859375 C 0.742188 -0.960938 0.867188 -1.015625 1.015625 -1.015625 C 1.148438 -1.015625 1.269531 -0.960938 1.375 -0.859375 C 1.476562 -0.753906 1.53125 -0.628906 1.53125 -0.484375 C 1.53125 -0.328125 1.476562 -0.195312 1.375 -0.09375 C 1.269531 0.0078125 1.148438 0.0625 1.015625 0.0625 Z M 0.484375 -3.40625 C 0.484375 -3.550781 0.535156 -3.675781 0.640625 -3.78125 C 0.742188 -3.882812 0.867188 -3.9375 1.015625 -3.9375 C 1.148438 -3.9375 1.269531 -3.882812 1.375 -3.78125 C 1.476562 -3.675781 1.53125 -3.550781 1.53125 -3.40625 C 1.53125 -3.257812 1.476562 -3.128906 1.375 -3.015625 C 1.269531 -2.910156 1.148438 -2.859375 1.015625 -2.859375 C 0.867188 -2.859375 0.742188 -2.910156 0.640625 -3.015625 C 0.535156 -3.128906 0.484375 -3.257812 0.484375 -3.40625 Z M 0.484375 -3.40625 "/></g></g></g><g fill="#000000" fill-opacity="1"><g transform="translate(73.436616, 224.756127)"><g><path d="M 0.421875 0 L 0.421875 -0.125 C 0.566406 -0.164062 0.660156 -0.257812 0.703125 -0.40625 C 0.742188 -0.5625 0.765625 -0.800781 0.765625 -1.125 L 0.765625 -5.078125 C 0.765625 -5.398438 0.742188 -5.632812 0.703125 -5.78125 C 0.660156 -5.9375 0.566406 -6.039062 0.421875 -6.09375 L 0.421875 -6.21875 L 2.609375 -6.21875 C 3.335938 -6.21875 3.847656 -6.109375 4.140625 -5.890625 C 4.441406 -5.679688 4.59375 -5.398438 4.59375 -5.046875 C 4.59375 -4.742188 4.484375 -4.46875 4.265625 -4.21875 C 4.046875 -3.96875 3.65625 -3.789062 3.09375 -3.6875 C 3.832031 -3.664062 4.382812 -3.503906 4.75 -3.203125 C 5.125 -2.898438 5.3125 -2.523438 5.3125 -2.078125 C 5.320312 -1.816406 5.269531 -1.5625 5.15625 -1.3125 C 5.050781 -1.070312 4.878906 -0.851562 4.640625 -0.65625 C 4.410156 -0.457031 4.101562 -0.296875 3.71875 -0.171875 C 3.34375 -0.0546875 2.882812 0 2.34375 0 Z M 1.71875 -0.921875 C 1.71875 -0.597656 1.742188 -0.382812 1.796875 -0.28125 C 1.859375 -0.1875 1.984375 -0.140625 2.171875 -0.140625 L 2.421875 -0.140625 C 3.054688 -0.140625 3.519531 -0.289062 3.8125 -0.59375 C 4.113281 -0.90625 4.265625 -1.289062 4.265625 -1.75 C 4.265625 -2.289062 4.109375 -2.726562 3.796875 -3.0625 C 3.492188 -3.40625 3.007812 -3.578125 2.34375 -3.578125 L 1.71875 -3.578125 Z M 1.71875 -3.71875 L 2.5 -3.71875 C 2.820312 -3.71875 3.078125 -3.828125 3.265625 -4.046875 C 3.453125 -4.265625 3.546875 -4.53125 3.546875 -4.84375 C 3.546875 -5.226562 3.414062 -5.53125 3.15625 -5.75 C 2.894531 -5.96875 2.535156 -6.078125 2.078125 -6.078125 L 1.71875 -6.078125 Z M 1.71875 -3.71875 "/></g></g></g><g fill="#000000" fill-opacity="1"><g transform="translate(80.372337, 224.756127)"><g><path d="M 0.421875 0 L 0.421875 -0.125 C 0.566406 -0.164062 0.660156 -0.257812 0.703125 -0.40625 C 0.742188 -0.5625 0.765625 -0.800781 0.765625 -1.125 L 0.765625 -5.078125 C 0.765625 -5.398438 0.742188 -5.632812 0.703125 -5.78125 C 0.660156 -5.9375 0.566406 -6.039062 0.421875 -6.09375 L 0.421875 -6.21875 L 4.671875 -6.21875 L 4.78125 -4.96875 L 4.65625 -4.9375 C 4.476562 -5.375 4.238281 -5.671875 3.9375 -5.828125 C 3.644531 -5.992188 3.25 -6.078125 2.75 -6.078125 L 1.71875 -6.078125 L 1.71875 -3.40625 L 2.5625 -3.40625 C 2.925781 -3.40625 3.210938 -3.425781 3.421875 -3.46875 C 3.628906 -3.519531 3.78125 -3.597656 3.875 -3.703125 C 3.976562 -3.804688 4.050781 -3.929688 4.09375 -4.078125 L 4.21875 -4.078125 L 4.21875 -2.59375 L 4.09375 -2.59375 C 4.050781 -2.75 3.976562 -2.875 3.875 -2.96875 C 3.78125 -3.070312 3.628906 -3.144531 3.421875 -3.1875 C 3.210938 -3.238281 2.925781 -3.265625 2.5625 -3.265625 L 1.71875 -3.265625 L 1.71875 -0.578125 C 1.71875 -0.285156 1.863281 -0.140625 2.15625 -0.140625 L 3.015625 -0.140625 C 3.460938 -0.140625 3.835938 -0.222656 4.140625 -0.390625 C 4.453125 -0.554688 4.691406 -0.863281 4.859375 -1.3125 L 4.96875 -1.296875 L 4.90625 0 Z M 0.421875 0 "/></g></g></g><g fill="#000000" fill-opacity="1"><g transform="translate(86.97993, 224.756127)"><g><path d="M 0.421875 0 L 0.421875 -0.125 C 0.566406 -0.164062 0.660156 -0.257812 0.703125 -0.40625 C 0.742188 -0.5625 0.765625 -0.800781 0.765625 -1.125 L 0.765625 -5.078125 C 0.765625 -5.398438 0.742188 -5.632812 0.703125 -5.78125 C 0.660156 -5.9375 0.566406 -6.039062 0.421875 -6.09375 L 0.421875 -6.21875 L 2.640625 -6.21875 C 3.273438 -6.21875 3.8125 -6.125 4.25 -5.9375 C 4.6875 -5.75 5.035156 -5.503906 5.296875 -5.203125 C 5.554688 -4.910156 5.742188 -4.585938 5.859375 -4.234375 C 5.972656 -3.890625 6.03125 -3.554688 6.03125 -3.234375 C 6.039062 -2.585938 5.910156 -2.019531 5.640625 -1.53125 C 5.378906 -1.050781 5.007812 -0.675781 4.53125 -0.40625 C 4.050781 -0.132812 3.484375 0 2.828125 0 Z M 1.71875 -0.796875 C 1.71875 -0.585938 1.75 -0.425781 1.8125 -0.3125 C 1.882812 -0.195312 2.046875 -0.140625 2.296875 -0.140625 L 2.765625 -0.140625 C 3.484375 -0.140625 4.03125 -0.34375 4.40625 -0.75 C 4.789062 -1.164062 4.984375 -1.847656 4.984375 -2.796875 C 4.984375 -3.398438 4.875 -3.945312 4.65625 -4.4375 C 4.445312 -4.9375 4.128906 -5.332031 3.703125 -5.625 C 3.273438 -5.925781 2.726562 -6.078125 2.0625 -6.078125 L 1.71875 -6.078125 Z M 1.71875 -0.796875 "/></g></g></g><g fill="#000000" fill-opacity="1"><g transform="translate(94.793619, 224.756127)"><g><path d="M 4.9375 0.0625 C 4.695312 0.0625 4.503906 0.0078125 4.359375 -0.09375 C 4.210938 -0.207031 4.082031 -0.375 3.96875 -0.59375 C 3.863281 -0.820312 3.738281 -1.109375 3.59375 -1.453125 C 3.46875 -1.773438 3.359375 -2.046875 3.265625 -2.265625 C 3.179688 -2.492188 3.097656 -2.675781 3.015625 -2.8125 C 2.929688 -2.945312 2.828125 -3.039062 2.703125 -3.09375 C 2.585938 -3.15625 2.429688 -3.1875 2.234375 -3.1875 L 1.71875 -3.1875 L 1.71875 -1.125 C 1.71875 -0.800781 1.738281 -0.5625 1.78125 -0.40625 C 1.820312 -0.257812 1.914062 -0.164062 2.0625 -0.125 L 2.0625 0 L 0.421875 0 L 0.421875 -0.125 C 0.566406 -0.164062 0.660156 -0.257812 0.703125 -0.40625 C 0.742188 -0.5625 0.765625 -0.800781 0.765625 -1.125 L 0.765625 -5.078125 C 0.765625 -5.398438 0.742188 -5.632812 0.703125 -5.78125 C 0.660156 -5.9375 0.566406 -6.039062 0.421875 -6.09375 L 0.421875 -6.21875 L 2.28125 -6.21875 C 2.769531 -6.21875 3.164062 -6.175781 3.46875 -6.09375 C 3.769531 -6.007812 4.003906 -5.898438 4.171875 -5.765625 C 4.335938 -5.640625 4.453125 -5.488281 4.515625 -5.3125 C 4.578125 -5.144531 4.609375 -4.972656 4.609375 -4.796875 C 4.609375 -4.390625 4.46875 -4.039062 4.1875 -3.75 C 3.90625 -3.46875 3.46875 -3.289062 2.875 -3.21875 C 3.125 -3.1875 3.328125 -3.132812 3.484375 -3.0625 C 3.648438 -3 3.789062 -2.898438 3.90625 -2.765625 C 4.019531 -2.628906 4.125 -2.457031 4.21875 -2.25 C 4.3125 -2.050781 4.421875 -1.804688 4.546875 -1.515625 C 4.703125 -1.117188 4.820312 -0.816406 4.90625 -0.609375 C 5 -0.410156 5.082031 -0.273438 5.15625 -0.203125 C 5.238281 -0.140625 5.332031 -0.109375 5.4375 -0.109375 C 5.457031 -0.109375 5.476562 -0.109375 5.5 -0.109375 C 5.519531 -0.109375 5.546875 -0.113281 5.578125 -0.125 L 5.578125 0 C 5.472656 0.0195312 5.359375 0.0351562 5.234375 0.046875 C 5.109375 0.0546875 5.007812 0.0625 4.9375 0.0625 Z M 1.71875 -3.328125 L 2.28125 -3.328125 C 2.613281 -3.328125 2.882812 -3.382812 3.09375 -3.5 C 3.300781 -3.613281 3.445312 -3.765625 3.53125 -3.953125 C 3.625 -4.148438 3.671875 -4.359375 3.671875 -4.578125 C 3.671875 -4.816406 3.617188 -5.050781 3.515625 -5.28125 C 3.410156 -5.507812 3.238281 -5.695312 3 -5.84375 C 2.769531 -6 2.472656 -6.078125 2.109375 -6.078125 C 1.984375 -6.078125 1.851562 -6.066406 1.71875 -6.046875 Z M 1.71875 -3.328125 "/></g></g></g><g fill="#000000" fill-opacity="1"><g transform="translate(101.605189, 224.756127)"><g><path d="M -0.1875 0 L -0.1875 -0.125 C -0.0507812 -0.164062 0.0703125 -0.253906 0.1875 -0.390625 C 0.3125 -0.535156 0.4375 -0.753906 0.5625 -1.046875 L 2.21875 -5.171875 C 2.28125 -5.328125 2.273438 -5.484375 2.203125 -5.640625 L 2.078125 -5.890625 L 2.953125 -6.28125 L 5.15625 -1.03125 C 5.28125 -0.75 5.398438 -0.535156 5.515625 -0.390625 C 5.628906 -0.253906 5.738281 -0.164062 5.84375 -0.125 L 5.84375 0 L 4.21875 0 L 4.21875 -0.125 C 4.375 -0.164062 4.429688 -0.253906 4.390625 -0.390625 C 4.347656 -0.535156 4.265625 -0.75 4.140625 -1.03125 L 3.609375 -2.3125 L 1.25 -2.3125 L 0.734375 -1.046875 C 0.609375 -0.753906 0.554688 -0.535156 0.578125 -0.390625 C 0.609375 -0.242188 0.695312 -0.15625 0.84375 -0.125 L 0.84375 0 Z M 1.296875 -2.453125 L 3.546875 -2.453125 L 2.40625 -5.203125 Z M 1.296875 -2.453125 "/></g></g></g><g fill="#000000" fill-opacity="1"><g transform="translate(108.63846, 224.756127)"><g><path d="M 3.828125 0.09375 C 3.140625 0.09375 2.546875 -0.0351562 2.046875 -0.296875 C 1.546875 -0.566406 1.160156 -0.945312 0.890625 -1.4375 C 0.617188 -1.925781 0.484375 -2.492188 0.484375 -3.140625 C 0.484375 -3.554688 0.5625 -3.953125 0.71875 -4.328125 C 0.875 -4.710938 1.097656 -5.050781 1.390625 -5.34375 C 1.691406 -5.632812 2.046875 -5.863281 2.453125 -6.03125 C 2.867188 -6.195312 3.320312 -6.28125 3.8125 -6.28125 C 4 -6.28125 4.210938 -6.265625 4.453125 -6.234375 C 4.691406 -6.203125 4.925781 -6.15625 5.15625 -6.09375 C 5.394531 -6.03125 5.585938 -5.945312 5.734375 -5.84375 L 5.78125 -4.671875 L 5.671875 -4.640625 C 5.554688 -4.953125 5.378906 -5.210938 5.140625 -5.421875 C 4.910156 -5.640625 4.648438 -5.804688 4.359375 -5.921875 C 4.078125 -6.046875 3.785156 -6.109375 3.484375 -6.109375 C 3.097656 -6.109375 2.75 -6.019531 2.4375 -5.84375 C 2.125 -5.664062 1.875 -5.398438 1.6875 -5.046875 C 1.507812 -4.703125 1.414062 -4.257812 1.40625 -3.71875 C 1.40625 -3.300781 1.460938 -2.878906 1.578125 -2.453125 C 1.703125 -2.023438 1.878906 -1.632812 2.109375 -1.28125 C 2.347656 -0.9375 2.632812 -0.65625 2.96875 -0.4375 C 3.3125 -0.226562 3.695312 -0.125 4.125 -0.125 C 4.394531 -0.125 4.644531 -0.179688 4.875 -0.296875 C 5.113281 -0.410156 5.289062 -0.578125 5.40625 -0.796875 L 5.40625 -1.609375 C 5.40625 -1.953125 5.375 -2.195312 5.3125 -2.34375 C 5.257812 -2.5 5.132812 -2.601562 4.9375 -2.65625 L 4.9375 -2.78125 L 6.3125 -2.78125 L 6.3125 -1.140625 C 6.09375 -0.847656 5.835938 -0.613281 5.546875 -0.4375 C 5.253906 -0.257812 4.957031 -0.125 4.65625 -0.03125 C 4.351562 0.0507812 4.078125 0.09375 3.828125 0.09375 Z M 3.828125 0.09375 "/></g></g></g><g fill="#000000" fill-opacity="1"><g transform="translate(116.656115, 224.756127)"><g><path d="M 1.015625 0.0625 C 0.867188 0.0625 0.742188 0.0078125 0.640625 -0.09375 C 0.535156 -0.195312 0.484375 -0.328125 0.484375 -0.484375 C 0.484375 -0.628906 0.535156 -0.753906 0.640625 -0.859375 C 0.742188 -0.960938 0.867188 -1.015625 1.015625 -1.015625 C 1.148438 -1.015625 1.269531 -0.960938 1.375 -0.859375 C 1.476562 -0.753906 1.53125 -0.628906 1.53125 -0.484375 C 1.53125 -0.328125 1.476562 -0.195312 1.375 -0.09375 C 1.269531 0.0078125 1.148438 0.0625 1.015625 0.0625 Z M 0.484375 -3.40625 C 0.484375 -3.550781 0.535156 -3.675781 0.640625 -3.78125 C 0.742188 -3.882812 0.867188 -3.9375 1.015625 -3.9375 C 1.148438 -3.9375 1.269531 -3.882812 1.375 -3.78125 C 1.476562 -3.675781 1.53125 -3.550781 1.53125 -3.40625 C 1.53125 -3.257812 1.476562 -3.128906 1.375 -3.015625 C 1.269531 -2.910156 1.148438 -2.859375 1.015625 -2.859375 C 0.867188 -2.859375 0.742188 -2.910156 0.640625 -3.015625 C 0.535156 -3.128906 0.484375 -3.257812 0.484375 -3.40625 Z M 0.484375 -3.40625 "/></g></g></g></svg>