<?xml version="1.0" encoding="UTF-8" standalone="no"?>
<!-- Created with Inkscape (http://www.inkscape.org/) -->

<svg
   width="196.31258mm"
   height="192.09045mm"
   viewBox="0 0 196.31258 192.09045"
   version="1.1"
   id="svg4012"
   inkscape:version="1.2.2 (b0a84865, 2022-12-01)"
   sodipodi:docname="sciccors.svg"
   xmlns:inkscape="http://www.inkscape.org/namespaces/inkscape"
   xmlns:sodipodi="http://sodipodi.sourceforge.net/DTD/sodipodi-0.dtd"
   xmlns="http://www.w3.org/2000/svg"
   xmlns:svg="http://www.w3.org/2000/svg">
  <sodipodi:namedview
     id="namedview4014"
     pagecolor="#ffffff"
     bordercolor="#000000"
     borderopacity="0.25"
     inkscape:showpageshadow="2"
     inkscape:pageopacity="0.0"
     inkscape:pagecheckerboard="0"
     inkscape:deskcolor="#d1d1d1"
     inkscape:document-units="mm"
     showgrid="false"
     inkscape:zoom="0.42830746"
     inkscape:cx="65.373599"
     inkscape:cy="500.80847"
     inkscape:window-width="1309"
     inkscape:window-height="823"
     inkscape:window-x="0"
     inkscape:window-y="44"
     inkscape:window-maximized="0"
     inkscape:current-layer="layer1" />
  <defs
     id="defs4009" />
  <g
     inkscape:label="Layer 1"
     inkscape:groupmode="layer"
     id="layer1"
     transform="translate(-6.9263356,-52.45477)">
    <path
       d="m 88.331873,127.50733 c -0.217567,-1.3053 -0.435081,-2.61061 -1.087729,-4.13357 l -8.919263,8.91946 C 46.128636,164.70712 -1.7308905,233.88582 8.2762067,244.11024 l 94.1959533,-94.19611 -5.438591,-5.43854 c -7.178913,-7.17883 -8.049075,-12.6177 -8.701696,-16.96826 z m 43.290987,-22.84213 9.78954,-9.789433 c 4.35091,12.400043 16.09793,21.101503 30.02094,21.101503 17.40326,0 31.76125,-14.35766 31.76125,-31.761251 0,-17.403254 -14.35799,-31.761249 -31.76125,-31.761249 -8.91945,0 -16.75093,3.480919 -22.62444,9.354446 l -41.11572,41.115694 13.70523,13.70501 c 1.7403,-2.82793 5.00346,-6.96117 10.22445,-11.96472 z M 171.2157,61.374228 c 12.83501,0 22.84211,10.442085 22.84211,22.841791 0,12.83503 -10.44207,22.842131 -22.84211,22.842131 -12.83505,0 -22.84214,-10.442092 -22.84214,-22.842131 0,-12.617368 10.44207,-22.841791 22.84214,-22.841791 z M 38.732156,115.97727 c 13.704993,0 25.452387,-8.91912 30.020947,-21.101503 l 9.789319,9.789433 c 12.182395,12.18238 13.052583,17.62092 13.705205,22.62447 0.652621,4.35089 1.305242,8.70179 7.396453,15.01031 l 102.24521,102.24525 c 10.00675,-10.0071 -37.85243,-79.18546 -70.26643,-111.81702 L 61.356623,62.244207 C 55.700414,56.37068 47.65126,52.890094 38.732156,52.890094 c -17.403604,0 -31.7612447,14.357662 -31.7612447,31.761249 0,17.403257 14.1403117,31.325927 31.7612447,31.325927 z m 70.266264,8.48446 c 0,1.95762 -1.52278,3.48059 -3.48067,3.48059 -1.95789,0 -3.4807,-1.52297 -3.4807,-3.48059 0,-1.95795 1.52281,-3.48091 3.4807,-3.48091 1.95789,0.21766 3.48067,1.74029 3.48067,3.48091 z M 38.732156,61.374228 c 12.835043,0 22.841796,10.442085 22.841796,22.841791 0,12.83503 -10.441755,22.842131 -22.841796,22.842131 -12.835043,0 -22.842141,-10.442092 -22.842141,-22.842131 C 15.455014,71.598651 25.897113,61.374228 38.732156,61.374228 Z"
       fill="#282828"
       fill-opacity="1"
       id="siccors"
       style="fill:#000000;fill-opacity:1;stroke-width:3.34865" />
  </g>
</svg>
